<svg id="arrow-down" data-name="Layer 1" xmlns="http://www.w3.org/2000/svg" width="48" height="48" viewBox="0 0 48 48">
  <title>arrow-down</title>
  <circle id="Oval-3-Copy-2" class="circle-path" cx="24" cy="24" r="23" style="fill: none;"/>
  <path id="Page-1-Copy-2" class="arrow-path" d="M24,38.4a31.11,31.11,0,0,0-3.77-6.65A30.44,30.44,0,0,0,15,26.28l.36,0h.47a8,8,0,0,1,3.66,1,16.42,16.42,0,0,1,3.88,2.91V1h1.26V30.1a16.47,16.47,0,0,1,3.88-2.92,8,8,0,0,1,3.68-.95h.5l.31,0a31,31,0,0,0-5.26,5.49A31.5,31.5,0,0,0,24,38.4" />
</svg>
